<?xml version="1.0" standalone="no"?>
<!DOCTYPE svg PUBLIC "-//W3C//DTD SVG 20010904//EN"
 "http://www.w3.org/TR/2001/REC-SVG-20010904/DTD/svg10.dtd">
<svg version="1.0" xmlns="http://www.w3.org/2000/svg"
 width="256.000000pt" height="256.000000pt" viewBox="0 0 256.000000 256.000000"
 preserveAspectRatio="xMidYMid meet">
<metadata>
Created by potrace 1.14, written by Peter Selinger 2001-2017
</metadata>
<g transform="translate(0.000000,256.000000) scale(0.100000,-0.100000)"
fill="#000000" stroke="none">
<path d="M1142 2508 c-181 -31 -342 -221 -428 -504 l-28 -91 -138 -43 c-81
-25 -143 -50 -148 -59 -4 -9 -16 -75 -25 -146 -21 -164 -30 -236 -40 -305 -2
-14 -6 -47 -9 -75 -4 -27 -15 -120 -26 -205 -12 -85 -23 -173 -26 -195 -2 -22
-9 -74 -15 -115 -12 -94 -16 -120 -25 -195 -4 -33 -8 -67 -9 -75 -5 -25 -19
-154 -20 -174 0 -10 7 -20 15 -21 8 -2 80 -15 160 -30 80 -15 156 -29 170 -32
21 -3 397 -74 465 -87 103 -20 153 -29 170 -32 33 -4 235 -44 309 -59 104 -23
134 -20 381 40 33 8 71 16 85 19 50 9 365 77 383 82 15 5 17 12 12 45 -4 21
-8 49 -10 62 -5 38 -25 181 -30 207 -2 14 -9 61 -15 105 -6 44 -13 92 -16 108
-2 15 -6 39 -8 55 -7 42 -28 185 -31 207 -1 11 -7 54 -13 95 -6 41 -14 93 -17
115 -3 23 -7 51 -10 64 -2 13 -7 49 -11 80 -3 31 -8 58 -9 61 -2 3 -6 33 -10
65 -3 33 -8 67 -10 75 -7 26 -21 117 -30 205 -4 33 -9 62 -10 65 -2 3 -6 30
-10 60 -3 30 -12 82 -18 114 -13 66 1 59 -146 70 -80 6 -79 5 -168 98 -61 63
-80 70 -137 51 -42 -14 -56 -11 -57 15 -1 31 -73 136 -116 168 -27 21 -60 35
-90 40 -33 5 -60 17 -87 40 -22 19 -47 34 -55 35 -9 0 -25 2 -36 3 -11 1 -39
-1 -63 -6z m77 -87 c11 -7 7 -12 -15 -24 -82 -42 -176 -189 -210 -328 l-16
-65 -90 -27 c-50 -16 -92 -26 -94 -24 -7 7 46 147 79 212 40 77 96 154 137
189 72 60 170 92 209 67z m224 -104 c31 -32 57 -76 71 -123 5 -18 -1 -23 -47
-37 -30 -9 -56 -17 -58 -17 -3 0 -5 17 -4 38 1 34 -8 97 -20 150 -8 33 18 28
58 -11z m-143 -14 c6 -21 13 -72 16 -115 l6 -76 -117 -37 c-64 -20 -119 -35
-121 -32 -13 12 47 145 93 205 20 27 97 92 109 92 2 0 8 -17 14 -37z m-32
-647 c28 -6 56 -16 61 -21 7 -7 -2 -51 -30 -135 -22 -69 -44 -129 -48 -133 -5
-5 -31 -1 -57 8 -62 22 -179 24 -219 5 -37 -18 -70 -81 -61 -116 8 -31 50 -74
131 -134 147 -110 197 -197 197 -340 0 -126 -61 -254 -151 -313 -133 -88 -325
-76 -488 30 -77 51 -76 46 -43 158 17 54 30 100 30 102 0 10 24 -1 71 -32 133
-88 243 -81 263 17 10 49 -23 106 -95 168 -89 75 -117 107 -145 165 -43 92
-35 224 21 337 60 122 192 216 329 235 23 3 42 6 44 8 9 8 145 1 190 -9z"/>
</g>
</svg>
